<mxfile modified="2023-06-28T05:29:00.669Z" host="app.diagrams.net" agent="Mozilla/5.0 (Macintosh; Intel Mac OS X 10_15_7) AppleWebKit/537.36 (KHTML, like Gecko) Chrome/114.0.0.0 Safari/537.36" etag="NyIl-_knVRpj4A0E8Czd" version="21.5.1" type="github">
  <diagram id="l8hXMBHkgcEJcSW0mbfh" name="Page-1">
    <mxGraphModel dx="1590" dy="1880" grid="1" gridSize="10" guides="1" tooltips="1" connect="1" arrows="1" fold="1" page="1" pageScale="1" pageWidth="1169" pageHeight="827" math="0" shadow="0">
      <root>
        <mxCell id="0" />
        <mxCell id="1" parent="0" />
        <mxCell id="7wcA-T8HbLnC7azTt-rd-41" value="" style="rounded=1;whiteSpace=wrap;html=1;fillColor=none;dashed=1;arcSize=6;" vertex="1" parent="1">
          <mxGeometry x="310" y="123" width="840" height="560" as="geometry" />
        </mxCell>
        <mxCell id="7wcA-T8HbLnC7azTt-rd-65" value="" style="rounded=1;whiteSpace=wrap;html=1;fillColor=none;dashed=1;arcSize=6;" vertex="1" parent="1">
          <mxGeometry x="420" y="533" width="223" height="137" as="geometry" />
        </mxCell>
        <mxCell id="7wcA-T8HbLnC7azTt-rd-69" value="" style="rounded=1;whiteSpace=wrap;html=1;fillColor=none;dashed=1;arcSize=6;" vertex="1" parent="1">
          <mxGeometry x="643.33" y="533" width="240" height="137" as="geometry" />
        </mxCell>
        <mxCell id="7wcA-T8HbLnC7azTt-rd-63" value="" style="rounded=1;whiteSpace=wrap;html=1;fillColor=none;dashed=1;arcSize=6;" vertex="1" parent="1">
          <mxGeometry x="890" y="253" width="250" height="200" as="geometry" />
        </mxCell>
        <mxCell id="7wcA-T8HbLnC7azTt-rd-49" value="" style="rounded=1;whiteSpace=wrap;html=1;fillColor=none;dashed=1;arcSize=10;" vertex="1" parent="1">
          <mxGeometry x="19" y="123" width="291" height="560" as="geometry" />
        </mxCell>
        <mxCell id="7wcA-T8HbLnC7azTt-rd-29" style="edgeStyle=orthogonalEdgeStyle;rounded=0;orthogonalLoop=1;jettySize=auto;html=1;startArrow=classic;startFill=1;" edge="1" parent="1" source="7wcA-T8HbLnC7azTt-rd-2" target="7wcA-T8HbLnC7azTt-rd-10">
          <mxGeometry relative="1" as="geometry" />
        </mxCell>
        <mxCell id="7wcA-T8HbLnC7azTt-rd-2" value="" style="image;aspect=fixed;html=1;points=[];align=center;fontSize=12;image=img/lib/azure2/integration/API_Management_Services.svg;" vertex="1" parent="1">
          <mxGeometry x="273.8" y="550" width="71.49" height="66" as="geometry" />
        </mxCell>
        <mxCell id="7wcA-T8HbLnC7azTt-rd-23" style="edgeStyle=orthogonalEdgeStyle;rounded=0;orthogonalLoop=1;jettySize=auto;html=1;startArrow=classic;startFill=1;entryX=1;entryY=0.5;entryDx=0;entryDy=0;entryPerimeter=0;" edge="1" parent="1" source="7wcA-T8HbLnC7azTt-rd-3" target="7wcA-T8HbLnC7azTt-rd-10">
          <mxGeometry relative="1" as="geometry">
            <mxPoint x="716" y="583.0000000000002" as="targetPoint" />
          </mxGeometry>
        </mxCell>
        <mxCell id="7wcA-T8HbLnC7azTt-rd-3" value="" style="image;aspect=fixed;html=1;points=[];align=center;fontSize=12;image=img/lib/azure2/containers/Kubernetes_Services.svg;" vertex="1" parent="1">
          <mxGeometry x="729.2700000000001" y="541.5" width="94.06" height="83" as="geometry" />
        </mxCell>
        <mxCell id="7wcA-T8HbLnC7azTt-rd-7" value="" style="sketch=0;points=[[0,0,0],[0.25,0,0],[0.5,0,0],[0.75,0,0],[1,0,0],[0,1,0],[0.25,1,0],[0.5,1,0],[0.75,1,0],[1,1,0],[0,0.25,0],[0,0.5,0],[0,0.75,0],[1,0.25,0],[1,0.5,0],[1,0.75,0]];outlineConnect=0;fontColor=#232F3E;gradientColor=#F78E04;gradientDirection=north;fillColor=#D05C17;strokeColor=#ffffff;dashed=0;verticalLabelPosition=bottom;verticalAlign=top;align=center;html=1;fontSize=12;fontStyle=0;aspect=fixed;shape=mxgraph.aws4.resourceIcon;resIcon=mxgraph.aws4.ec2;" vertex="1" parent="1">
          <mxGeometry x="1050" y="304" width="78" height="78" as="geometry" />
        </mxCell>
        <mxCell id="7wcA-T8HbLnC7azTt-rd-10" value="" style="outlineConnect=0;dashed=0;verticalLabelPosition=bottom;verticalAlign=top;align=center;html=1;shape=mxgraph.aws3.application_load_balancer;fillColor=#F58536;gradientColor=none;" vertex="1" parent="1">
          <mxGeometry x="497" y="547" width="69" height="72" as="geometry" />
        </mxCell>
        <mxCell id="7wcA-T8HbLnC7azTt-rd-27" style="edgeStyle=orthogonalEdgeStyle;rounded=0;orthogonalLoop=1;jettySize=auto;html=1;exitX=1;exitY=0.5;exitDx=0;exitDy=0;exitPerimeter=0;entryX=0;entryY=0.5;entryDx=0;entryDy=0;entryPerimeter=0;startArrow=classic;startFill=1;" edge="1" parent="1" source="7wcA-T8HbLnC7azTt-rd-12" target="7wcA-T8HbLnC7azTt-rd-7">
          <mxGeometry relative="1" as="geometry" />
        </mxCell>
        <mxCell id="7wcA-T8HbLnC7azTt-rd-12" value="" style="outlineConnect=0;dashed=0;verticalLabelPosition=bottom;verticalAlign=top;align=center;html=1;shape=mxgraph.aws3.application_load_balancer;fillColor=#F58536;gradientColor=none;" vertex="1" parent="1">
          <mxGeometry x="860.5" y="307" width="69" height="72" as="geometry" />
        </mxCell>
        <mxCell id="7wcA-T8HbLnC7azTt-rd-25" style="edgeStyle=orthogonalEdgeStyle;rounded=0;orthogonalLoop=1;jettySize=auto;html=1;entryX=0.5;entryY=0;entryDx=0;entryDy=0;entryPerimeter=0;" edge="1" parent="1" source="7wcA-T8HbLnC7azTt-rd-15" target="7wcA-T8HbLnC7azTt-rd-10">
          <mxGeometry relative="1" as="geometry" />
        </mxCell>
        <mxCell id="7wcA-T8HbLnC7azTt-rd-44" style="edgeStyle=orthogonalEdgeStyle;rounded=0;orthogonalLoop=1;jettySize=auto;html=1;" edge="1" parent="1" source="7wcA-T8HbLnC7azTt-rd-15" target="7wcA-T8HbLnC7azTt-rd-43">
          <mxGeometry relative="1" as="geometry" />
        </mxCell>
        <mxCell id="7wcA-T8HbLnC7azTt-rd-15" value="" style="image;points=[];aspect=fixed;html=1;align=center;shadow=0;dashed=0;image=img/lib/allied_telesis/storage/Datacenter_Server_Half_Rack_ToR.svg;" vertex="1" parent="1">
          <mxGeometry x="489.17" y="197" width="84.66" height="110" as="geometry" />
        </mxCell>
        <mxCell id="7wcA-T8HbLnC7azTt-rd-26" style="edgeStyle=orthogonalEdgeStyle;rounded=0;orthogonalLoop=1;jettySize=auto;html=1;entryX=0.5;entryY=0;entryDx=0;entryDy=0;entryPerimeter=0;exitX=0.532;exitY=1.034;exitDx=0;exitDy=0;exitPerimeter=0;" edge="1" parent="1" source="7wcA-T8HbLnC7azTt-rd-17" target="7wcA-T8HbLnC7azTt-rd-10">
          <mxGeometry relative="1" as="geometry">
            <mxPoint x="740" y="493" as="sourcePoint" />
            <Array as="points">
              <mxPoint x="531" y="402" />
              <mxPoint x="531" y="547" />
            </Array>
          </mxGeometry>
        </mxCell>
        <mxCell id="7wcA-T8HbLnC7azTt-rd-28" style="edgeStyle=orthogonalEdgeStyle;rounded=0;orthogonalLoop=1;jettySize=auto;html=1;entryX=0;entryY=0.5;entryDx=0;entryDy=0;entryPerimeter=0;" edge="1" parent="1" source="7wcA-T8HbLnC7azTt-rd-17" target="7wcA-T8HbLnC7azTt-rd-12">
          <mxGeometry relative="1" as="geometry" />
        </mxCell>
        <mxCell id="7wcA-T8HbLnC7azTt-rd-17" value="" style="image;points=[];aspect=fixed;html=1;align=center;shadow=0;dashed=0;image=img/lib/allied_telesis/storage/Datacenter_Server_Half_Rack_ToR.svg;" vertex="1" parent="1">
          <mxGeometry x="675" y="288" width="84.66" height="110" as="geometry" />
        </mxCell>
        <mxCell id="7wcA-T8HbLnC7azTt-rd-21" value="" style="outlineConnect=0;dashed=0;verticalLabelPosition=bottom;verticalAlign=top;align=center;html=1;shape=mxgraph.aws3.vpc;fillColor=#F58536;gradientColor=none;" vertex="1" parent="1">
          <mxGeometry x="870" y="203" width="50" height="60" as="geometry" />
        </mxCell>
        <mxCell id="7wcA-T8HbLnC7azTt-rd-31" style="edgeStyle=orthogonalEdgeStyle;rounded=0;orthogonalLoop=1;jettySize=auto;html=1;startArrow=classic;startFill=1;" edge="1" parent="1" source="7wcA-T8HbLnC7azTt-rd-30" target="7wcA-T8HbLnC7azTt-rd-15">
          <mxGeometry relative="1" as="geometry" />
        </mxCell>
        <mxCell id="7wcA-T8HbLnC7azTt-rd-30" value="" style="verticalLabelPosition=bottom;html=1;verticalAlign=top;align=center;strokeColor=none;fillColor=#00BEF2;shape=mxgraph.azure.load_balancer_generic;pointerEvents=1;" vertex="1" parent="1">
          <mxGeometry x="286.49" y="222" width="50" height="60" as="geometry" />
        </mxCell>
        <mxCell id="7wcA-T8HbLnC7azTt-rd-35" value="" style="outlineConnect=0;dashed=0;verticalLabelPosition=bottom;verticalAlign=top;align=center;html=1;shape=mxgraph.aws3.internet_gateway;fillColor=#F58534;gradientColor=none;" vertex="1" parent="1">
          <mxGeometry x="10" y="40" width="69" height="72" as="geometry" />
        </mxCell>
        <mxCell id="7wcA-T8HbLnC7azTt-rd-36" value="" style="outlineConnect=0;dashed=0;verticalLabelPosition=bottom;verticalAlign=top;align=center;html=1;shape=mxgraph.aws3.internet_gateway;fillColor=#F58534;gradientColor=none;" vertex="1" parent="1">
          <mxGeometry x="349.99999999999994" y="40" width="69" height="72" as="geometry" />
        </mxCell>
        <mxCell id="7wcA-T8HbLnC7azTt-rd-43" value="" style="image;aspect=fixed;html=1;points=[];align=center;fontSize=12;image=img/lib/azure2/identity/Azure_Active_Directory.svg;" vertex="1" parent="1">
          <mxGeometry x="383" y="345" width="70" height="64" as="geometry" />
        </mxCell>
        <mxCell id="7wcA-T8HbLnC7azTt-rd-45" value="Services" style="html=1;whiteSpace=wrap;strokeColor=none;fillColor=#0079D6;labelPosition=center;verticalLabelPosition=middle;verticalAlign=top;align=center;fontSize=12;outlineConnect=0;spacingTop=-6;fontColor=#FFFFFF;sketch=0;shape=mxgraph.sitemap.services;" vertex="1" parent="1">
          <mxGeometry x="40" y="550" width="120" height="70" as="geometry" />
        </mxCell>
        <mxCell id="7wcA-T8HbLnC7azTt-rd-48" style="edgeStyle=orthogonalEdgeStyle;rounded=0;orthogonalLoop=1;jettySize=auto;html=1;entryX=0;entryY=0.5;entryDx=0;entryDy=0;entryPerimeter=0;" edge="1" parent="1" source="7wcA-T8HbLnC7azTt-rd-47" target="7wcA-T8HbLnC7azTt-rd-30">
          <mxGeometry relative="1" as="geometry" />
        </mxCell>
        <mxCell id="7wcA-T8HbLnC7azTt-rd-47" value="" style="image;aspect=fixed;html=1;points=[];align=center;fontSize=12;image=img/lib/azure2/azure_stack/User_Subscriptions.svg;" vertex="1" parent="1">
          <mxGeometry x="66" y="219" width="68" height="66" as="geometry" />
        </mxCell>
        <mxCell id="7wcA-T8HbLnC7azTt-rd-50" value="Internet" style="text;html=1;align=center;verticalAlign=middle;resizable=0;points=[];autosize=1;strokeColor=none;fillColor=none;fontSize=22;" vertex="1" parent="1">
          <mxGeometry x="79" y="60" width="100" height="40" as="geometry" />
        </mxCell>
        <mxCell id="7wcA-T8HbLnC7azTt-rd-51" value="Intranet" style="text;html=1;align=center;verticalAlign=middle;resizable=0;points=[];autosize=1;strokeColor=none;fillColor=none;fontSize=22;" vertex="1" parent="1">
          <mxGeometry x="419" y="60" width="100" height="40" as="geometry" />
        </mxCell>
        <mxCell id="7wcA-T8HbLnC7azTt-rd-52" value="Employees" style="text;html=1;align=center;verticalAlign=middle;resizable=0;points=[];autosize=1;strokeColor=none;fillColor=none;fontSize=22;" vertex="1" parent="1">
          <mxGeometry x="35" y="293" width="130" height="40" as="geometry" />
        </mxCell>
        <mxCell id="7wcA-T8HbLnC7azTt-rd-53" value="Company Services" style="text;html=1;align=center;verticalAlign=middle;resizable=0;points=[];autosize=1;strokeColor=none;fillColor=none;fontSize=20;" vertex="1" parent="1">
          <mxGeometry x="20" y="619" width="190" height="40" as="geometry" />
        </mxCell>
        <mxCell id="7wcA-T8HbLnC7azTt-rd-54" value="&lt;font style=&quot;font-size: 22px;&quot;&gt;Azure API&lt;br style=&quot;font-size: 22px;&quot;&gt;ConnectOne&lt;/font&gt;" style="text;html=1;align=center;verticalAlign=middle;resizable=0;points=[];autosize=1;strokeColor=none;fillColor=none;fontSize=22;" vertex="1" parent="1">
          <mxGeometry x="233" y="477" width="150" height="70" as="geometry" />
        </mxCell>
        <mxCell id="7wcA-T8HbLnC7azTt-rd-55" value="&lt;font style=&quot;font-size: 14px;&quot;&gt;ALB&lt;br style=&quot;font-size: 14px;&quot;&gt;Solr.jarvis.trendmicro.com​&lt;br style=&quot;font-size: 14px;&quot;&gt;10.140.248.27&lt;/font&gt;" style="text;html=1;align=center;verticalAlign=middle;resizable=0;points=[];autosize=1;strokeColor=none;fillColor=none;fontSize=14;horizontal=1;" vertex="1" parent="1">
          <mxGeometry x="443.33" y="614.5" width="180" height="60" as="geometry" />
        </mxCell>
        <mxCell id="7wcA-T8HbLnC7azTt-rd-56" value="10.140.248.0/24" style="text;html=1;align=center;verticalAlign=middle;resizable=0;points=[];autosize=1;strokeColor=none;fillColor=none;fontSize=14;" vertex="1" parent="1">
          <mxGeometry x="716.3000000000001" y="629.5" width="120" height="30" as="geometry" />
        </mxCell>
        <mxCell id="7wcA-T8HbLnC7azTt-rd-59" value="AAD&lt;br&gt;Azure" style="text;html=1;align=center;verticalAlign=middle;resizable=0;points=[];autosize=1;strokeColor=none;fillColor=none;fontSize=22;" vertex="1" parent="1">
          <mxGeometry x="378" y="403" width="80" height="70" as="geometry" />
        </mxCell>
        <mxCell id="7wcA-T8HbLnC7azTt-rd-60" value="L4/FW&lt;br&gt;" style="text;html=1;align=center;verticalAlign=middle;resizable=0;points=[];autosize=1;strokeColor=none;fillColor=none;fontSize=22;" vertex="1" parent="1">
          <mxGeometry x="268.54" y="183" width="90" height="40" as="geometry" />
        </mxCell>
        <mxCell id="7wcA-T8HbLnC7azTt-rd-61" value="ALB" style="text;html=1;align=center;verticalAlign=middle;resizable=0;points=[];autosize=1;strokeColor=none;fillColor=none;fontSize=22;" vertex="1" parent="1">
          <mxGeometry x="851" y="382" width="70" height="40" as="geometry" />
        </mxCell>
        <mxCell id="7wcA-T8HbLnC7azTt-rd-62" value="EC2" style="text;html=1;align=center;verticalAlign=middle;resizable=0;points=[];autosize=1;strokeColor=none;fillColor=none;fontSize=22;" vertex="1" parent="1">
          <mxGeometry x="1054" y="397" width="70" height="40" as="geometry" />
        </mxCell>
        <mxCell id="7wcA-T8HbLnC7azTt-rd-64" value="Wiki - AWS VPC" style="text;html=1;align=center;verticalAlign=middle;resizable=0;points=[];autosize=1;strokeColor=none;fillColor=none;fontSize=22;" vertex="1" parent="1">
          <mxGeometry x="920" y="213" width="180" height="40" as="geometry" />
        </mxCell>
        <mxCell id="7wcA-T8HbLnC7azTt-rd-66" value="" style="outlineConnect=0;dashed=0;verticalLabelPosition=bottom;verticalAlign=top;align=center;html=1;shape=mxgraph.aws3.vpc;fillColor=#F58536;gradientColor=none;" vertex="1" parent="1">
          <mxGeometry x="393" y="487" width="50" height="60" as="geometry" />
        </mxCell>
        <mxCell id="7wcA-T8HbLnC7azTt-rd-67" value="&amp;nbsp;Solr - AWS VPC" style="text;html=1;align=left;verticalAlign=middle;resizable=0;points=[];autosize=1;strokeColor=none;fillColor=none;fontSize=22;" vertex="1" parent="1">
          <mxGeometry x="443.33" y="493" width="190" height="40" as="geometry" />
        </mxCell>
        <mxCell id="7wcA-T8HbLnC7azTt-rd-70" value="" style="outlineConnect=0;dashed=0;verticalLabelPosition=bottom;verticalAlign=top;align=center;html=1;shape=mxgraph.aws3.vpc;fillColor=#F58536;gradientColor=none;" vertex="1" parent="1">
          <mxGeometry x="633.33" y="487" width="50" height="60" as="geometry" />
        </mxCell>
        <mxCell id="7wcA-T8HbLnC7azTt-rd-71" value="&amp;nbsp;Solr - Azure AKS" style="text;html=1;align=center;verticalAlign=middle;resizable=0;points=[];autosize=1;strokeColor=none;fillColor=none;fontSize=22;" vertex="1" parent="1">
          <mxGeometry x="674.0000000000001" y="497" width="190" height="40" as="geometry" />
        </mxCell>
        <mxCell id="7wcA-T8HbLnC7azTt-rd-72" value="&lt;font style=&quot;font-size: 16px;&quot;&gt;Data&lt;br&gt;TCP 443&lt;br&gt;&lt;/font&gt;" style="text;html=1;align=center;verticalAlign=middle;resizable=0;points=[];autosize=1;strokeColor=none;fillColor=none;fontSize=22;" vertex="1" parent="1">
          <mxGeometry x="773.0000000000001" y="343" width="90" height="70" as="geometry" />
        </mxCell>
        <mxCell id="7wcA-T8HbLnC7azTt-rd-73" value="&lt;font style=&quot;font-size: 16px;&quot;&gt;Data&lt;br&gt;TCP 443&lt;br&gt;&lt;/font&gt;" style="text;html=1;align=center;verticalAlign=middle;resizable=0;points=[];autosize=1;strokeColor=none;fillColor=none;fontSize=22;" vertex="1" parent="1">
          <mxGeometry x="532.3300000000002" y="331" width="90" height="70" as="geometry" />
        </mxCell>
        <mxCell id="7wcA-T8HbLnC7azTt-rd-94" style="edgeStyle=orthogonalEdgeStyle;rounded=0;orthogonalLoop=1;jettySize=auto;html=1;entryX=0;entryY=0.5;entryDx=0;entryDy=0;" edge="1" parent="1" source="7wcA-T8HbLnC7azTt-rd-81" target="7wcA-T8HbLnC7azTt-rd-82">
          <mxGeometry relative="1" as="geometry" />
        </mxCell>
        <mxCell id="7wcA-T8HbLnC7azTt-rd-81" value="" style="image;aspect=fixed;html=1;points=[];align=center;fontSize=12;image=img/lib/azure2/azure_stack/User_Subscriptions.svg;" vertex="1" parent="1">
          <mxGeometry x="20" y="1028" width="68" height="66" as="geometry" />
        </mxCell>
        <mxCell id="7wcA-T8HbLnC7azTt-rd-96" style="edgeStyle=orthogonalEdgeStyle;rounded=0;orthogonalLoop=1;jettySize=auto;html=1;entryX=0;entryY=0.5;entryDx=0;entryDy=0;" edge="1" parent="1" source="7wcA-T8HbLnC7azTt-rd-82" target="7wcA-T8HbLnC7azTt-rd-84">
          <mxGeometry relative="1" as="geometry" />
        </mxCell>
        <mxCell id="7wcA-T8HbLnC7azTt-rd-82" value="" style="image;aspect=fixed;perimeter=ellipsePerimeter;html=1;align=center;shadow=0;dashed=0;spacingTop=3;image=img/lib/active_directory/firewall.svg;" vertex="1" parent="1">
          <mxGeometry x="225" y="1021" width="48.8" height="80" as="geometry" />
        </mxCell>
        <mxCell id="7wcA-T8HbLnC7azTt-rd-104" style="edgeStyle=orthogonalEdgeStyle;rounded=0;orthogonalLoop=1;jettySize=auto;html=1;" edge="1" parent="1" source="7wcA-T8HbLnC7azTt-rd-83">
          <mxGeometry relative="1" as="geometry">
            <mxPoint x="785" y="1366" as="targetPoint" />
          </mxGeometry>
        </mxCell>
        <mxCell id="7wcA-T8HbLnC7azTt-rd-83" value="" style="image;aspect=fixed;perimeter=ellipsePerimeter;html=1;align=center;shadow=0;dashed=0;spacingTop=3;image=img/lib/active_directory/generic_server.svg;" vertex="1" parent="1">
          <mxGeometry x="761.1999999999999" y="1076" width="47.6" height="85" as="geometry" />
        </mxCell>
        <mxCell id="7wcA-T8HbLnC7azTt-rd-100" style="edgeStyle=orthogonalEdgeStyle;rounded=0;orthogonalLoop=1;jettySize=auto;html=1;entryX=0;entryY=0.5;entryDx=0;entryDy=0;" edge="1" parent="1" source="7wcA-T8HbLnC7azTt-rd-84" target="7wcA-T8HbLnC7azTt-rd-89">
          <mxGeometry relative="1" as="geometry" />
        </mxCell>
        <mxCell id="7wcA-T8HbLnC7azTt-rd-84" value="" style="image;aspect=fixed;perimeter=ellipsePerimeter;html=1;align=center;shadow=0;dashed=0;spacingTop=3;image=img/lib/active_directory/web_server.svg;" vertex="1" parent="1">
          <mxGeometry x="404" y="1016" width="72" height="90" as="geometry" />
        </mxCell>
        <mxCell id="7wcA-T8HbLnC7azTt-rd-105" style="edgeStyle=orthogonalEdgeStyle;rounded=0;orthogonalLoop=1;jettySize=auto;html=1;exitX=1;exitY=0.5;exitDx=0;exitDy=0;entryX=0;entryY=0.5;entryDx=0;entryDy=0;" edge="1" parent="1" source="7wcA-T8HbLnC7azTt-rd-85" target="7wcA-T8HbLnC7azTt-rd-88">
          <mxGeometry relative="1" as="geometry" />
        </mxCell>
        <mxCell id="7wcA-T8HbLnC7azTt-rd-85" value="" style="image;aspect=fixed;perimeter=ellipsePerimeter;html=1;align=center;shadow=0;dashed=0;spacingTop=3;image=img/lib/active_directory/generic_server.svg;" vertex="1" parent="1">
          <mxGeometry x="540" y="896" width="47.6" height="85" as="geometry" />
        </mxCell>
        <mxCell id="7wcA-T8HbLnC7azTt-rd-87" value="" style="image;aspect=fixed;perimeter=ellipsePerimeter;html=1;align=center;shadow=0;dashed=0;spacingTop=3;image=img/lib/active_directory/generic_server.svg;" vertex="1" parent="1">
          <mxGeometry x="960" y="1356" width="47.6" height="85" as="geometry" />
        </mxCell>
        <mxCell id="7wcA-T8HbLnC7azTt-rd-106" style="edgeStyle=orthogonalEdgeStyle;rounded=0;orthogonalLoop=1;jettySize=auto;html=1;entryX=0.5;entryY=0;entryDx=0;entryDy=0;" edge="1" parent="1" source="7wcA-T8HbLnC7azTt-rd-88" target="7wcA-T8HbLnC7azTt-rd-83">
          <mxGeometry relative="1" as="geometry" />
        </mxCell>
        <mxCell id="7wcA-T8HbLnC7azTt-rd-88" value="" style="image;aspect=fixed;perimeter=ellipsePerimeter;html=1;align=center;shadow=0;dashed=0;spacingTop=3;image=img/lib/active_directory/firewall.svg;" vertex="1" parent="1">
          <mxGeometry x="665.0000000000001" y="898.5" width="48.8" height="80" as="geometry" />
        </mxCell>
        <mxCell id="7wcA-T8HbLnC7azTt-rd-102" style="edgeStyle=orthogonalEdgeStyle;rounded=0;orthogonalLoop=1;jettySize=auto;html=1;entryX=0;entryY=0.5;entryDx=0;entryDy=0;" edge="1" parent="1" source="7wcA-T8HbLnC7azTt-rd-89" target="7wcA-T8HbLnC7azTt-rd-87">
          <mxGeometry relative="1" as="geometry" />
        </mxCell>
        <mxCell id="7wcA-T8HbLnC7azTt-rd-89" value="" style="image;aspect=fixed;perimeter=ellipsePerimeter;html=1;align=center;shadow=0;dashed=0;spacingTop=3;image=img/lib/active_directory/firewall.svg;" vertex="1" parent="1">
          <mxGeometry x="766.6099999999999" y="1358.5" width="48.8" height="80" as="geometry" />
        </mxCell>
        <mxCell id="7wcA-T8HbLnC7azTt-rd-103" style="edgeStyle=orthogonalEdgeStyle;rounded=0;orthogonalLoop=1;jettySize=auto;html=1;" edge="1" parent="1" source="7wcA-T8HbLnC7azTt-rd-90" target="7wcA-T8HbLnC7azTt-rd-89">
          <mxGeometry relative="1" as="geometry" />
        </mxCell>
        <mxCell id="7wcA-T8HbLnC7azTt-rd-90" value="" style="image;aspect=fixed;perimeter=ellipsePerimeter;html=1;align=center;shadow=0;dashed=0;spacingTop=3;image=img/lib/active_directory/firewall.svg;" vertex="1" parent="1">
          <mxGeometry x="241.19999999999993" y="1358.5" width="48.8" height="80" as="geometry" />
        </mxCell>
        <mxCell id="7wcA-T8HbLnC7azTt-rd-95" style="edgeStyle=orthogonalEdgeStyle;rounded=0;orthogonalLoop=1;jettySize=auto;html=1;exitX=1;exitY=0.5;exitDx=0;exitDy=0;exitPerimeter=0;entryX=0;entryY=0.5;entryDx=0;entryDy=0;" edge="1" parent="1" source="7wcA-T8HbLnC7azTt-rd-92" target="7wcA-T8HbLnC7azTt-rd-90">
          <mxGeometry relative="1" as="geometry" />
        </mxCell>
        <mxCell id="7wcA-T8HbLnC7azTt-rd-92" value="Services" style="html=1;whiteSpace=wrap;strokeColor=none;fillColor=#0079D6;labelPosition=center;verticalLabelPosition=middle;verticalAlign=top;align=center;fontSize=12;outlineConnect=0;spacingTop=-6;fontColor=#FFFFFF;sketch=0;shape=mxgraph.sitemap.services;" vertex="1" parent="1">
          <mxGeometry x="25.60000000000001" y="1368.5" width="100" height="60" as="geometry" />
        </mxCell>
        <mxCell id="7wcA-T8HbLnC7azTt-rd-107" value="Wiki Server" style="text;html=1;align=center;verticalAlign=middle;resizable=0;points=[];autosize=1;strokeColor=none;fillColor=none;fontSize=16;" vertex="1" parent="1">
          <mxGeometry x="500" y="981" width="110" height="30" as="geometry" />
        </mxCell>
        <mxCell id="7wcA-T8HbLnC7azTt-rd-108" value="Web Server&lt;br&gt;Data Storage: Memory Only&amp;nbsp;&lt;br&gt;Log: D:\solr\log&lt;br&gt;Data: Wiki page&lt;br&gt;(title/content/author/editor/link/&lt;br&gt;created date/modified date)" style="text;html=1;align=center;verticalAlign=middle;resizable=0;points=[];autosize=1;strokeColor=none;fillColor=none;fontSize=16;" vertex="1" parent="1">
          <mxGeometry x="308.8" y="1106" width="240" height="130" as="geometry" />
        </mxCell>
        <mxCell id="7wcA-T8HbLnC7azTt-rd-109" value="TLS v1.2&lt;br&gt;TCP 443" style="text;html=1;align=center;verticalAlign=middle;resizable=0;points=[];autosize=1;strokeColor=none;fillColor=none;fontSize=16;" vertex="1" parent="1">
          <mxGeometry x="745.4100000000001" y="1446" width="90" height="50" as="geometry" />
        </mxCell>
        <mxCell id="7wcA-T8HbLnC7azTt-rd-111" value="Job Server&lt;br&gt;Data Storage: Memory Only&amp;nbsp;&lt;br&gt;Log: D:\solr\log&lt;br&gt;Data: Wiki page&lt;br&gt;(id/title/content/author/editor/link/&lt;br&gt;permission set/created date/modified date)" style="text;html=1;align=center;verticalAlign=middle;resizable=0;points=[];autosize=1;strokeColor=none;fillColor=none;fontSize=16;" vertex="1" parent="1">
          <mxGeometry x="790.3299999999999" y="1056" width="330" height="130" as="geometry" />
        </mxCell>
        <mxCell id="7wcA-T8HbLnC7azTt-rd-113" value="Solr Server&lt;br&gt;Data Storage: Solr-Collection&amp;nbsp;&lt;br&gt;Disk Encryption (RSA-2048)&lt;br&gt;Log: ZooKeeper&lt;br&gt;Data: Wiki page&lt;br&gt;(id/title/content/author/editor/link/&lt;br&gt;permission set/created date/modified date)" style="text;html=1;align=center;verticalAlign=middle;resizable=0;points=[];autosize=1;strokeColor=none;fillColor=none;fontSize=16;" vertex="1" parent="1">
          <mxGeometry x="818.8000000000001" y="1436" width="330" height="150" as="geometry" />
        </mxCell>
        <mxCell id="7wcA-T8HbLnC7azTt-rd-114" value="Azure API Management&lt;br&gt;TLS v1.2&lt;br&gt;TCP 443" style="text;html=1;align=center;verticalAlign=middle;resizable=0;points=[];autosize=1;strokeColor=none;fillColor=none;fontSize=16;" vertex="1" parent="1">
          <mxGeometry x="170.6" y="1438.5" width="190" height="70" as="geometry" />
        </mxCell>
        <mxCell id="7wcA-T8HbLnC7azTt-rd-115" value="L4/FW&lt;br&gt;TLS v1.2&lt;br&gt;TCP 443" style="text;html=1;align=center;verticalAlign=middle;resizable=0;points=[];autosize=1;strokeColor=none;fillColor=none;fontSize=16;" vertex="1" parent="1">
          <mxGeometry x="204.4" y="1106" width="90" height="70" as="geometry" />
        </mxCell>
        <mxCell id="7wcA-T8HbLnC7azTt-rd-116" value="ALB&lt;br&gt;TLS v1.2&lt;br&gt;TCP 443" style="text;html=1;align=center;verticalAlign=middle;resizable=0;points=[];autosize=1;strokeColor=none;fillColor=none;fontSize=16;" vertex="1" parent="1">
          <mxGeometry x="644.4" y="976" width="90" height="70" as="geometry" />
        </mxCell>
        <mxCell id="7wcA-T8HbLnC7azTt-rd-121" value="&lt;span style=&quot;font-size: 14px; font-family: Helvetica, Helvetica_EmbeddedFont, Helvetica_MSFontService, &amp;quot;ＭＳ Ｐゴシック&amp;quot;, sans-serif; background-color: initial;&quot;&gt;sjdc-piweb01.us.trendnet.org - 10.45.171.27​&amp;nbsp;&lt;/span&gt;&lt;br style=&quot;font-size: 14px;&quot;&gt;&lt;div style=&quot;margin: 0px; padding: 0px; user-select: text; -webkit-user-drag: none; -webkit-tap-highlight-color: transparent; touch-action: pan-x pan-y; overflow: visible; cursor: text; clear: both; position: relative; direction: ltr; text-align: start; font-size: 14px;&quot; class=&quot;OutlineElement Ltr SCXP161266945 BCX0&quot;&gt;&lt;p style=&quot;font-size: 14px; margin: 0px; padding: 0px; user-select: text; -webkit-user-drag: none; -webkit-tap-highlight-color: transparent; touch-action: pan-x pan-y; overflow-wrap: break-word; vertical-align: baseline; text-align: center;&quot; data-ccp-props=&quot;{&amp;quot;335551550&amp;quot;:2,&amp;quot;335551620&amp;quot;:2,&amp;quot;335559683&amp;quot;:0,&amp;quot;335559685&amp;quot;:0,&amp;quot;335559731&amp;quot;:0,&amp;quot;335559737&amp;quot;:0,&amp;quot;335562764&amp;quot;:2,&amp;quot;335562765&amp;quot;:1,&amp;quot;335562766&amp;quot;:2,&amp;quot;335562767&amp;quot;:0,&amp;quot;335562768&amp;quot;:2,&amp;quot;335562769&amp;quot;:0}&quot; lang=&quot;EN-US&quot; class=&quot;Paragraph SCXP161266945 BCX0&quot;&gt;&lt;font style=&quot;font-size: 14px;&quot; face=&quot;Helvetica, Helvetica_EmbeddedFont, Helvetica_MSFontService, ＭＳ Ｐゴシック, sans-serif&quot;&gt;sjdc-piweb02.us.trendnet.org - 10.45.171.28​&lt;/font&gt;&lt;br style=&quot;font-size: 14px;&quot;&gt;&lt;/p&gt;&lt;/div&gt;" style="text;html=1;strokeColor=none;fillColor=none;align=center;verticalAlign=middle;whiteSpace=wrap;rounded=0;fontSize=14;" vertex="1" parent="1">
          <mxGeometry x="343" y="153" width="351" height="50" as="geometry" />
        </mxCell>
        <mxCell id="7wcA-T8HbLnC7azTt-rd-123" value="&lt;span style=&quot;font-family: Helvetica, Helvetica_EmbeddedFont, Helvetica_MSFontService, &amp;quot;ＭＳ Ｐゴシック&amp;quot;, sans-serif; background-color: initial; font-size: 14px;&quot;&gt;sjdc-job.us.trendnet.org​&lt;/span&gt;&lt;br style=&quot;font-size: 14px;&quot;&gt;&lt;div style=&quot;margin: 0px; padding: 0px; user-select: text; -webkit-user-drag: none; -webkit-tap-highlight-color: transparent; touch-action: pan-x pan-y; overflow: visible; cursor: text; clear: both; position: relative; direction: ltr; text-align: start; font-size: 14px;&quot; class=&quot;OutlineElement Ltr SCXP161266945 BCX0&quot;&gt;&lt;p style=&quot;text-align: center; margin: 0px; padding: 0px; user-select: text; -webkit-user-drag: none; -webkit-tap-highlight-color: transparent; touch-action: pan-x pan-y; overflow-wrap: break-word; vertical-align: baseline; font-size: 14px;&quot; data-ccp-props=&quot;{&amp;quot;335551550&amp;quot;:2,&amp;quot;335551620&amp;quot;:2,&amp;quot;335559683&amp;quot;:0,&amp;quot;335559685&amp;quot;:0,&amp;quot;335559731&amp;quot;:0,&amp;quot;335559737&amp;quot;:0,&amp;quot;335562764&amp;quot;:2,&amp;quot;335562765&amp;quot;:1,&amp;quot;335562766&amp;quot;:2,&amp;quot;335562767&amp;quot;:0,&amp;quot;335562768&amp;quot;:2,&amp;quot;335562769&amp;quot;:0}&quot; lang=&quot;EN-US&quot; class=&quot;Paragraph SCXP161266945 BCX0&quot;&gt;&lt;font face=&quot;Helvetica, Helvetica_EmbeddedFont, Helvetica_MSFontService, ＭＳ Ｐゴシック, sans-serif&quot; style=&quot;font-size: 14px;&quot;&gt;10.45.171.48&lt;/font&gt;&lt;br style=&quot;font-size: 14px;&quot;&gt;&lt;/p&gt;&lt;/div&gt;" style="text;html=1;strokeColor=none;fillColor=none;align=center;verticalAlign=middle;whiteSpace=wrap;rounded=0;fontSize=14;" vertex="1" parent="1">
          <mxGeometry x="544.5" y="233" width="351" height="50" as="geometry" />
        </mxCell>
        <mxCell id="7wcA-T8HbLnC7azTt-rd-124" value="&lt;font style=&quot;font-size: 16px;&quot;&gt;Data&lt;br&gt;TCP 443&lt;br&gt;&lt;/font&gt;" style="text;html=1;align=center;verticalAlign=middle;resizable=0;points=[];autosize=1;strokeColor=none;fillColor=none;fontSize=22;" vertex="1" parent="1">
          <mxGeometry x="165.0000000000001" y="183" width="90" height="70" as="geometry" />
        </mxCell>
        <mxCell id="7wcA-T8HbLnC7azTt-rd-127" value="" style="edgeStyle=orthogonalEdgeStyle;rounded=0;orthogonalLoop=1;jettySize=auto;html=1;entryX=1;entryY=0.5;entryDx=0;entryDy=0;entryPerimeter=0;exitX=-0.001;exitY=0.526;exitDx=0;exitDy=0;exitPerimeter=0;" edge="1" parent="1" source="7wcA-T8HbLnC7azTt-rd-2" target="7wcA-T8HbLnC7azTt-rd-45">
          <mxGeometry relative="1" as="geometry">
            <mxPoint x="169" y="590" as="sourcePoint" />
            <mxPoint x="273" y="589" as="targetPoint" />
          </mxGeometry>
        </mxCell>
        <mxCell id="7wcA-T8HbLnC7azTt-rd-126" value="&lt;font style=&quot;font-size: 16px;&quot;&gt;Data&lt;br&gt;TCP 443&lt;br&gt;&lt;/font&gt;" style="text;html=1;align=center;verticalAlign=middle;resizable=0;points=[];autosize=1;strokeColor=none;fillColor=none;fontSize=22;" vertex="1" parent="1">
          <mxGeometry x="165.0000000000001" y="520" width="90" height="70" as="geometry" />
        </mxCell>
        <mxCell id="7wcA-T8HbLnC7azTt-rd-128" value="&lt;div class=&quot;OutlineElement Ltr SCXP147853197 BCX0&quot; style=&quot;margin: 0px; padding: 0px; user-select: text; -webkit-user-drag: none; -webkit-tap-highlight-color: transparent; touch-action: pan-x pan-y; overflow: visible; cursor: text; clear: both; position: relative; direction: ltr; font-family: &amp;quot;Segoe UI&amp;quot;, &amp;quot;Segoe UI Web&amp;quot;, Arial, Verdana, sans-serif; font-style: normal; font-variant-ligatures: normal; font-variant-caps: normal; font-weight: 400; letter-spacing: normal; orphans: 2; text-align: start; text-indent: 0px; text-transform: none; widows: 2; word-spacing: 0px; -webkit-text-stroke-width: 0px; text-decoration-thickness: initial; text-decoration-style: initial; text-decoration-color: initial; font-size: 14px;&quot;&gt;&lt;p class=&quot;Paragraph SCXP147853197 BCX0&quot; lang=&quot;EN-US&quot; data-ccp-props=&quot;{&amp;quot;335551550&amp;quot;:2,&amp;quot;335551620&amp;quot;:2,&amp;quot;335559683&amp;quot;:0,&amp;quot;335559685&amp;quot;:0,&amp;quot;335559731&amp;quot;:0,&amp;quot;335559737&amp;quot;:0,&amp;quot;335562764&amp;quot;:2,&amp;quot;335562765&amp;quot;:1,&amp;quot;335562766&amp;quot;:2,&amp;quot;335562767&amp;quot;:0,&amp;quot;335562768&amp;quot;:2,&amp;quot;335562769&amp;quot;:0}&quot; style=&quot;margin: 0px; padding: 0px; user-select: text; -webkit-user-drag: none; -webkit-tap-highlight-color: transparent; touch-action: pan-x pan-y; overflow-wrap: break-word; font-weight: normal; font-style: normal; vertical-align: baseline; text-align: center; text-indent: 0px; font-size: 14px;&quot;&gt;&lt;font style=&quot;font-size: 14px;&quot;&gt;&lt;span data-scheme-color=&quot;@FFFFFF,,&quot; data-usefontface=&quot;true&quot; data-contrast=&quot;none&quot; class=&quot;TextRun SCXP147853197 BCX0&quot; lang=&quot;EN-US&quot; style=&quot;margin: 0px; padding: 0px 0px 0.114505px; user-select: text; -webkit-user-drag: none; -webkit-tap-highlight-color: transparent; touch-action: pan-x pan-y; font-variant: normal; font-weight: normal; font-style: normal; text-decoration: none; font-family: Helvetica, Helvetica_EmbeddedFont, Helvetica_MSFontService, &amp;quot;ＭＳ Ｐゴシック&amp;quot;, sans-serif; letter-spacing: 0px; font-kerning: none; line-height: 14px; vertical-align: 0.114505px; font-size: 14px;&quot;&gt;&lt;span class=&quot;NormalTextRun SCXP147853197 BCX0&quot; style=&quot;margin: 0px; padding: 0px; user-select: text; -webkit-user-drag: none; -webkit-tap-highlight-color: transparent; touch-action: pan-x pan-y; vertical-align: -0.114505px; line-height: 0px; position: relative; font-size: 14px;&quot;&gt;wiki.jarvis.trendmicro.com&lt;/span&gt;&lt;/span&gt;&lt;span class=&quot;LineBreakBlob BlobObject SCXP147853197 BCX0&quot; style=&quot;margin: 0px; padding: 0px; user-select: text; -webkit-user-drag: none; -webkit-tap-highlight-color: transparent; touch-action: pan-x pan-y; line-height: 14px; font-family: Helvetica, Helvetica_EmbeddedFont, Helvetica_MSFontService, &amp;quot;ＭＳ Ｐゴシック&amp;quot;, sans-serif; font-size: 14px;&quot;&gt;&lt;span class=&quot;SCXP147853197 BCX0&quot; style=&quot;margin: 0px; padding: 0px; user-select: text; -webkit-user-drag: none; -webkit-tap-highlight-color: transparent; touch-action: pan-x pan-y; font-size: 14px;&quot;&gt;​&lt;/span&gt;&lt;br class=&quot;SCXP147853197 BCX0&quot; style=&quot;margin: 0px; padding: 0px; user-select: text; -webkit-user-drag: none; -webkit-tap-highlight-color: transparent; touch-action: pan-x pan-y; font-size: 14px;&quot;&gt;&lt;/span&gt;&lt;span data-scheme-color=&quot;@F0F0F0,,&quot; data-usefontface=&quot;true&quot; data-contrast=&quot;none&quot; class=&quot;TextRun SCXP147853197 BCX0&quot; lang=&quot;EN-US&quot; style=&quot;margin: 0px; padding: 0px 0px 0.114505px; user-select: text; -webkit-user-drag: none; -webkit-tap-highlight-color: transparent; touch-action: pan-x pan-y; font-variant: normal; font-weight: normal; font-style: normal; text-decoration: none; font-family: Helvetica, Helvetica_EmbeddedFont, Helvetica_MSFontService, &amp;quot;ＭＳ Ｐゴシック&amp;quot;, sans-serif; letter-spacing: 0px; font-kerning: none; line-height: 14px; vertical-align: 0.114505px; font-size: 14px;&quot;&gt;&lt;span class=&quot;NormalTextRun SCXP147853197 BCX0&quot; style=&quot;margin: 0px; padding: 0px; user-select: text; -webkit-user-drag: none; -webkit-tap-highlight-color: transparent; touch-action: pan-x pan-y; vertical-align: -0.114505px; line-height: 0px; position: relative; font-size: 14px;&quot;&gt;10.129.68.54&lt;/span&gt;&lt;/span&gt;&lt;span class=&quot;EOP SCXP147853197 BCX0&quot; style=&quot;margin: 0px; padding: 0px; user-select: text; -webkit-user-drag: none; -webkit-tap-highlight-color: transparent; touch-action: pan-x pan-y; line-height: 0px; font-family: Helvetica, Helvetica_EmbeddedFont, Helvetica_MSFontService, &amp;quot;ＭＳ Ｐゴシック&amp;quot;, sans-serif; font-size: 14px;&quot;&gt;​&lt;/span&gt;&lt;/font&gt;&lt;/p&gt;&lt;/div&gt;&lt;div class=&quot;OutlineElement Ltr SCXP147853197 BCX0&quot; style=&quot;margin: 0px; padding: 0px; user-select: text; -webkit-user-drag: none; -webkit-tap-highlight-color: transparent; touch-action: pan-x pan-y; overflow: visible; cursor: text; clear: both; position: relative; direction: ltr; font-family: &amp;quot;Segoe UI&amp;quot;, &amp;quot;Segoe UI Web&amp;quot;, Arial, Verdana, sans-serif; font-style: normal; font-variant-ligatures: normal; font-variant-caps: normal; font-weight: 400; letter-spacing: normal; orphans: 2; text-align: start; text-indent: 0px; text-transform: none; widows: 2; word-spacing: 0px; -webkit-text-stroke-width: 0px; text-decoration-thickness: initial; text-decoration-style: initial; text-decoration-color: initial; font-size: 14px;&quot;&gt;&lt;p class=&quot;Paragraph SCXP147853197 BCX0&quot; lang=&quot;EN-US&quot; data-ccp-props=&quot;{&amp;quot;335551550&amp;quot;:2,&amp;quot;335551620&amp;quot;:2,&amp;quot;335559683&amp;quot;:0,&amp;quot;335559685&amp;quot;:0,&amp;quot;335559731&amp;quot;:0,&amp;quot;335559737&amp;quot;:0,&amp;quot;335562764&amp;quot;:2,&amp;quot;335562765&amp;quot;:1,&amp;quot;335562766&amp;quot;:2,&amp;quot;335562767&amp;quot;:0,&amp;quot;335562768&amp;quot;:2,&amp;quot;335562769&amp;quot;:0}&quot; style=&quot;margin: 0px; padding: 0px; user-select: text; -webkit-user-drag: none; -webkit-tap-highlight-color: transparent; touch-action: pan-x pan-y; overflow-wrap: break-word; font-weight: normal; font-style: normal; vertical-align: baseline; text-align: center; text-indent: 0px; font-size: 14px;&quot;&gt;&lt;font style=&quot;font-size: 14px;&quot;&gt;&lt;span data-scheme-color=&quot;@FFFFFF,,&quot; data-usefontface=&quot;true&quot; data-contrast=&quot;none&quot; class=&quot;TextRun SCXP147853197 BCX0&quot; lang=&quot;EN-US&quot; style=&quot;margin: 0px; padding: 0.100769px 0px 0px; user-select: text; -webkit-user-drag: none; -webkit-tap-highlight-color: transparent; touch-action: pan-x pan-y; font-variant: normal; font-weight: normal; font-style: normal; text-decoration: none; font-family: Calibri, Calibri_EmbeddedFont, Calibri_MSFontService, Calibri_MSFontService, Calibri_EmbeddedFont, Calibri_MSFontService, sans-serif, &amp;quot;ＭＳ Ｐゴシック&amp;quot;, Calibri, sans-serif; letter-spacing: 0px; font-kerning: none; line-height: 14px; vertical-align: -0.100769px; font-size: 14px;&quot;&gt;&lt;span class=&quot;NormalTextRun SCXP147853197 BCX0&quot; style=&quot;margin: 0px; padding: 0px; user-select: text; -webkit-user-drag: none; -webkit-tap-highlight-color: transparent; touch-action: pan-x pan-y; vertical-align: 0.100769px; line-height: 0px; position: relative; font-size: 14px;&quot;&gt;10.129.68.227&lt;/span&gt;&lt;/span&gt;&lt;span class=&quot;EOP SCXP147853197 BCX0&quot; style=&quot;margin: 0px; padding: 0px; user-select: text; -webkit-user-drag: none; -webkit-tap-highlight-color: transparent; touch-action: pan-x pan-y; line-height: 0px; font-family: Calibri, Calibri_EmbeddedFont, Calibri_MSFontService, Calibri_MSFontService, Calibri_EmbeddedFont, Calibri_MSFontService, sans-serif, &amp;quot;ＭＳ Ｐゴシック&amp;quot;, Calibri, sans-serif; font-size: 14px;&quot;&gt;​&lt;/span&gt;&lt;/font&gt;&lt;/p&gt;&lt;/div&gt;&lt;div class=&quot;OutlineElement Ltr SCXP147853197 BCX0&quot; style=&quot;margin: 0px; padding: 0px; user-select: text; -webkit-user-drag: none; -webkit-tap-highlight-color: transparent; touch-action: pan-x pan-y; overflow: visible; cursor: text; clear: both; position: relative; direction: ltr; font-family: &amp;quot;Segoe UI&amp;quot;, &amp;quot;Segoe UI Web&amp;quot;, Arial, Verdana, sans-serif; font-style: normal; font-variant-ligatures: normal; font-variant-caps: normal; font-weight: 400; letter-spacing: normal; orphans: 2; text-align: start; text-indent: 0px; text-transform: none; widows: 2; word-spacing: 0px; -webkit-text-stroke-width: 0px; text-decoration-thickness: initial; text-decoration-style: initial; text-decoration-color: initial; font-size: 14px;&quot;&gt;&lt;p class=&quot;Paragraph SCXP147853197 BCX0&quot; lang=&quot;EN-US&quot; data-ccp-props=&quot;{&amp;quot;335551550&amp;quot;:2,&amp;quot;335551620&amp;quot;:2,&amp;quot;335559683&amp;quot;:0,&amp;quot;335559685&amp;quot;:0,&amp;quot;335559731&amp;quot;:0,&amp;quot;335559737&amp;quot;:0,&amp;quot;335562764&amp;quot;:2,&amp;quot;335562765&amp;quot;:1,&amp;quot;335562766&amp;quot;:2,&amp;quot;335562767&amp;quot;:0,&amp;quot;335562768&amp;quot;:2,&amp;quot;335562769&amp;quot;:0}&quot; style=&quot;margin: 0px; padding: 0px; user-select: text; -webkit-user-drag: none; -webkit-tap-highlight-color: transparent; touch-action: pan-x pan-y; overflow-wrap: break-word; font-weight: normal; font-style: normal; vertical-align: baseline; text-align: center; text-indent: 0px; font-size: 14px;&quot;&gt;&lt;font style=&quot;font-size: 14px;&quot;&gt;&lt;span data-scheme-color=&quot;@FFFFFF,,&quot; data-usefontface=&quot;true&quot; data-contrast=&quot;none&quot; class=&quot;TextRun SCXP147853197 BCX0&quot; lang=&quot;EN-US&quot; style=&quot;margin: 0px; padding: 0px 0px 0.103153px; user-select: text; -webkit-user-drag: none; -webkit-tap-highlight-color: transparent; touch-action: pan-x pan-y; font-variant: normal; font-weight: normal; font-style: normal; text-decoration: none; font-family: Calibri, Calibri_EmbeddedFont, Calibri_MSFontService, Calibri_MSFontService, &amp;quot;ＭＳ Ｐゴシック&amp;quot;, &amp;quot;Segoe UI&amp;quot;, sans-serif; letter-spacing: 0px; font-kerning: none; line-height: 14px; vertical-align: 0.103153px; font-size: 14px;&quot;&gt;&lt;span class=&quot;NormalTextRun SCXP147853197 BCX0&quot; style=&quot;margin: 0px; padding: 0px; user-select: text; -webkit-user-drag: none; -webkit-tap-highlight-color: transparent; touch-action: pan-x pan-y; vertical-align: -0.103153px; line-height: 0px; position: relative; font-size: 14px;&quot;&gt;10.129.68.232&lt;/span&gt;&lt;/span&gt;&lt;span class=&quot;EOP SCXP147853197 BCX0&quot; style=&quot;margin: 0px; padding: 0px; user-select: text; -webkit-user-drag: none; -webkit-tap-highlight-color: transparent; touch-action: pan-x pan-y; line-height: 0px; font-family: Calibri, Calibri_EmbeddedFont, Calibri_MSFontService, Calibri_MSFontService, &amp;quot;ＭＳ Ｐゴシック&amp;quot;, &amp;quot;Segoe UI&amp;quot;, sans-serif; font-size: 14px;&quot;&gt;​&lt;/span&gt;&lt;/font&gt;&lt;/p&gt;&lt;/div&gt;" style="text;whiteSpace=wrap;html=1;fontSize=14;" vertex="1" parent="1">
          <mxGeometry x="950" y="457" width="160" height="80" as="geometry" />
        </mxCell>
        <mxCell id="7wcA-T8HbLnC7azTt-rd-130" value="&lt;font style=&quot;border-color: rgb(0, 0, 0); color: rgb(240, 240, 240); font-family: Helvetica; font-size: 22px; font-style: normal; font-variant-ligatures: normal; font-variant-caps: normal; font-weight: 400; letter-spacing: normal; orphans: 2; text-align: center; text-indent: 0px; text-transform: none; widows: 2; word-spacing: 0px; -webkit-text-stroke-width: 0px; text-decoration-thickness: initial; text-decoration-style: initial; text-decoration-color: initial;&quot;&gt;Job Server-SJDC&lt;span class=&quot;EOP SCXP161266945 BCX0&quot; style=&quot;border-color: rgb(0, 0, 0); margin: 0px; padding: 0px; user-select: text; -webkit-user-drag: none; -webkit-tap-highlight-color: transparent; touch-action: pan-x pan-y; line-height: 0px; font-family: Helvetica, Helvetica_EmbeddedFont, Helvetica_MSFontService, &amp;quot;ＭＳ Ｐゴシック&amp;quot;, sans-serif; font-size: 22px;&quot;&gt;​&lt;/span&gt;&lt;span data-scheme-color=&quot;@FFFFFF,,&quot; data-usefontface=&quot;true&quot; data-contrast=&quot;none&quot; class=&quot;TextRun SCXP161266945 BCX0&quot; lang=&quot;EN-US&quot; style=&quot;border-color: rgb(0, 0, 0); font-variant-numeric: normal; font-variant-east-asian: normal; font-variant-alternates: normal; margin: 0px; padding: 0px 0px 0.114505px; user-select: text; -webkit-user-drag: none; touch-action: pan-x pan-y; font-family: Helvetica, Helvetica_EmbeddedFont, Helvetica_MSFontService, &amp;quot;ＭＳ Ｐゴシック&amp;quot;, sans-serif; font-kerning: none; line-height: 14px; font-size: 22px; letter-spacing: 0px; -webkit-tap-highlight-color: transparent; vertical-align: 0.114505px;&quot;&gt;&lt;/span&gt;&lt;span class=&quot;EOP SCXP161266945 BCX0&quot; style=&quot;border-color: rgb(0, 0, 0); margin: 0px; padding: 0px; user-select: text; -webkit-user-drag: none; -webkit-tap-highlight-color: transparent; touch-action: pan-x pan-y; line-height: 0px; font-family: Helvetica, Helvetica_EmbeddedFont, Helvetica_MSFontService, &amp;quot;ＭＳ Ｐゴシック&amp;quot;, sans-serif; font-size: 22px;&quot;&gt;​&lt;/span&gt;&lt;span style=&quot;border-color: rgb(0, 0, 0); font-family: Helvetica, Helvetica_EmbeddedFont, Helvetica_MSFontService, &amp;quot;ＭＳ Ｐゴシック&amp;quot;, sans-serif; font-size: 22px;&quot;&gt;​&lt;br style=&quot;font-size: 22px;&quot;&gt;&lt;/span&gt;&lt;/font&gt;" style="text;whiteSpace=wrap;html=1;fontSize=22;" vertex="1" parent="1">
          <mxGeometry x="626.5" y="204" width="187" height="37" as="geometry" />
        </mxCell>
        <mxCell id="7wcA-T8HbLnC7azTt-rd-131" value="&lt;font style=&quot;border-color: rgb(0, 0, 0); color: rgb(240, 240, 240); font-family: Helvetica; font-size: 22px; font-style: normal; font-variant-ligatures: normal; font-variant-caps: normal; font-weight: 400; letter-spacing: normal; orphans: 2; text-align: center; text-indent: 0px; text-transform: none; widows: 2; word-spacing: 0px; -webkit-text-stroke-width: 0px; text-decoration-thickness: initial; text-decoration-style: initial; text-decoration-color: initial;&quot;&gt;Web Server-SJDC&lt;span class=&quot;EOP SCXP161266945 BCX0&quot; style=&quot;border-color: rgb(0, 0, 0); margin: 0px; padding: 0px; user-select: text; -webkit-user-drag: none; -webkit-tap-highlight-color: transparent; touch-action: pan-x pan-y; line-height: 0px; font-family: Helvetica, Helvetica_EmbeddedFont, Helvetica_MSFontService, &amp;quot;ＭＳ Ｐゴシック&amp;quot;, sans-serif; font-size: 22px;&quot;&gt;​&lt;/span&gt;&lt;span data-scheme-color=&quot;@FFFFFF,,&quot; data-usefontface=&quot;true&quot; data-contrast=&quot;none&quot; class=&quot;TextRun SCXP161266945 BCX0&quot; lang=&quot;EN-US&quot; style=&quot;border-color: rgb(0, 0, 0); font-variant-numeric: normal; font-variant-east-asian: normal; font-variant-alternates: normal; margin: 0px; padding: 0px 0px 0.114505px; user-select: text; -webkit-user-drag: none; touch-action: pan-x pan-y; font-family: Helvetica, Helvetica_EmbeddedFont, Helvetica_MSFontService, &amp;quot;ＭＳ Ｐゴシック&amp;quot;, sans-serif; font-kerning: none; line-height: 14px; font-size: 22px; letter-spacing: 0px; -webkit-tap-highlight-color: transparent; vertical-align: 0.114505px;&quot;&gt;&lt;/span&gt;&lt;span class=&quot;EOP SCXP161266945 BCX0&quot; style=&quot;border-color: rgb(0, 0, 0); margin: 0px; padding: 0px; user-select: text; -webkit-user-drag: none; -webkit-tap-highlight-color: transparent; touch-action: pan-x pan-y; line-height: 0px; font-family: Helvetica, Helvetica_EmbeddedFont, Helvetica_MSFontService, &amp;quot;ＭＳ Ｐゴシック&amp;quot;, sans-serif; font-size: 22px;&quot;&gt;​&lt;/span&gt;&lt;span style=&quot;border-color: rgb(0, 0, 0); font-family: Helvetica, Helvetica_EmbeddedFont, Helvetica_MSFontService, &amp;quot;ＭＳ Ｐゴシック&amp;quot;, sans-serif; font-size: 22px;&quot;&gt;​&lt;br style=&quot;font-size: 22px;&quot;&gt;&lt;/span&gt;&lt;/font&gt;" style="text;whiteSpace=wrap;html=1;fontSize=22;" vertex="1" parent="1">
          <mxGeometry x="424" y="123" width="187" height="37" as="geometry" />
        </mxCell>
        <mxCell id="7wcA-T8HbLnC7azTt-rd-348" value="apim-connectone.azure-api.net/api/solrsearch/WikiSolr" style="text;whiteSpace=wrap;html=1;fontSize=14;" vertex="1" parent="1">
          <mxGeometry x="217.5" y="616" width="162.5" height="50" as="geometry" />
        </mxCell>
        <mxCell id="7wcA-T8HbLnC7azTt-rd-349" value="&lt;span style=&quot;color: rgb(240, 240, 240); font-family: Helvetica; font-size: 14px; font-style: normal; font-variant-ligatures: normal; font-variant-caps: normal; font-weight: 400; letter-spacing: normal; orphans: 2; text-align: center; text-indent: 0px; text-transform: none; widows: 2; word-spacing: 0px; -webkit-text-stroke-width: 0px; background-color: rgb(42, 37, 47); text-decoration-thickness: initial; text-decoration-style: initial; text-decoration-color: initial; float: none; display: inline !important;&quot;&gt;eurekasearch.trendmicro.com&lt;/span&gt;" style="text;whiteSpace=wrap;html=1;fontSize=14;" vertex="1" parent="1">
          <mxGeometry x="213.49" y="283" width="196" height="32" as="geometry" />
        </mxCell>
        <mxCell id="7wcA-T8HbLnC7azTt-rd-463" value="" style="rounded=1;whiteSpace=wrap;html=1;fillColor=none;dashed=1;arcSize=6;" vertex="1" parent="1">
          <mxGeometry x="313.33" y="-710" width="840" height="690" as="geometry" />
        </mxCell>
        <mxCell id="7wcA-T8HbLnC7azTt-rd-464" value="" style="rounded=1;whiteSpace=wrap;html=1;fillColor=none;dashed=1;arcSize=6;" vertex="1" parent="1">
          <mxGeometry x="423.33000000000004" y="-300" width="223" height="137" as="geometry" />
        </mxCell>
        <mxCell id="7wcA-T8HbLnC7azTt-rd-465" value="" style="rounded=1;whiteSpace=wrap;html=1;fillColor=none;dashed=1;arcSize=6;" vertex="1" parent="1">
          <mxGeometry x="646.6600000000001" y="-300" width="240" height="137" as="geometry" />
        </mxCell>
        <mxCell id="7wcA-T8HbLnC7azTt-rd-467" value="" style="rounded=1;whiteSpace=wrap;html=1;fillColor=none;dashed=1;arcSize=10;" vertex="1" parent="1">
          <mxGeometry x="22.33" y="-710" width="291" height="690" as="geometry" />
        </mxCell>
        <mxCell id="7wcA-T8HbLnC7azTt-rd-468" style="edgeStyle=orthogonalEdgeStyle;rounded=0;orthogonalLoop=1;jettySize=auto;html=1;startArrow=classic;startFill=1;" edge="1" parent="1" source="7wcA-T8HbLnC7azTt-rd-469" target="7wcA-T8HbLnC7azTt-rd-473">
          <mxGeometry relative="1" as="geometry" />
        </mxCell>
        <mxCell id="7wcA-T8HbLnC7azTt-rd-469" value="" style="image;aspect=fixed;html=1;points=[];align=center;fontSize=12;image=img/lib/azure2/integration/API_Management_Services.svg;" vertex="1" parent="1">
          <mxGeometry x="277.13000000000005" y="-283" width="71.49" height="66" as="geometry" />
        </mxCell>
        <mxCell id="7wcA-T8HbLnC7azTt-rd-470" style="edgeStyle=orthogonalEdgeStyle;rounded=0;orthogonalLoop=1;jettySize=auto;html=1;startArrow=classic;startFill=1;entryX=1;entryY=0.5;entryDx=0;entryDy=0;entryPerimeter=0;" edge="1" parent="1" source="7wcA-T8HbLnC7azTt-rd-471" target="7wcA-T8HbLnC7azTt-rd-473">
          <mxGeometry relative="1" as="geometry">
            <mxPoint x="719.33" y="-249.99999999999977" as="targetPoint" />
          </mxGeometry>
        </mxCell>
        <mxCell id="7wcA-T8HbLnC7azTt-rd-471" value="" style="image;aspect=fixed;html=1;points=[];align=center;fontSize=12;image=img/lib/azure2/containers/Kubernetes_Services.svg;" vertex="1" parent="1">
          <mxGeometry x="732.6000000000001" y="-291.5" width="94.06" height="83" as="geometry" />
        </mxCell>
        <mxCell id="7wcA-T8HbLnC7azTt-rd-473" value="" style="outlineConnect=0;dashed=0;verticalLabelPosition=bottom;verticalAlign=top;align=center;html=1;shape=mxgraph.aws3.application_load_balancer;fillColor=#F58536;gradientColor=none;" vertex="1" parent="1">
          <mxGeometry x="500.33000000000004" y="-286" width="69" height="72" as="geometry" />
        </mxCell>
        <mxCell id="7wcA-T8HbLnC7azTt-rd-476" style="edgeStyle=orthogonalEdgeStyle;rounded=0;orthogonalLoop=1;jettySize=auto;html=1;entryX=0.5;entryY=0;entryDx=0;entryDy=0;entryPerimeter=0;" edge="1" parent="1" source="7wcA-T8HbLnC7azTt-rd-478" target="7wcA-T8HbLnC7azTt-rd-473">
          <mxGeometry relative="1" as="geometry" />
        </mxCell>
        <mxCell id="7wcA-T8HbLnC7azTt-rd-477" style="edgeStyle=orthogonalEdgeStyle;rounded=0;orthogonalLoop=1;jettySize=auto;html=1;" edge="1" parent="1" source="7wcA-T8HbLnC7azTt-rd-478" target="7wcA-T8HbLnC7azTt-rd-487">
          <mxGeometry relative="1" as="geometry" />
        </mxCell>
        <mxCell id="7wcA-T8HbLnC7azTt-rd-478" value="" style="image;points=[];aspect=fixed;html=1;align=center;shadow=0;dashed=0;image=img/lib/allied_telesis/storage/Datacenter_Server_Half_Rack_ToR.svg;" vertex="1" parent="1">
          <mxGeometry x="492.5000000000001" y="-636" width="84.66" height="110" as="geometry" />
        </mxCell>
        <mxCell id="7wcA-T8HbLnC7azTt-rd-479" style="edgeStyle=orthogonalEdgeStyle;rounded=0;orthogonalLoop=1;jettySize=auto;html=1;entryX=0.5;entryY=0;entryDx=0;entryDy=0;entryPerimeter=0;exitX=0.532;exitY=1.034;exitDx=0;exitDy=0;exitPerimeter=0;" edge="1" parent="1" source="7wcA-T8HbLnC7azTt-rd-481" target="7wcA-T8HbLnC7azTt-rd-473">
          <mxGeometry relative="1" as="geometry">
            <mxPoint x="743.33" y="-340" as="sourcePoint" />
            <Array as="points">
              <mxPoint x="534.33" y="-431" />
              <mxPoint x="534.33" y="-286" />
            </Array>
          </mxGeometry>
        </mxCell>
        <mxCell id="7wcA-T8HbLnC7azTt-rd-480" style="edgeStyle=orthogonalEdgeStyle;rounded=0;orthogonalLoop=1;jettySize=auto;html=1;entryX=1;entryY=0.5;entryDx=0;entryDy=0;" edge="1" parent="1" source="7wcA-T8HbLnC7azTt-rd-481" target="7wcA-T8HbLnC7azTt-rd-521">
          <mxGeometry relative="1" as="geometry">
            <mxPoint x="348.6199999999999" y="-103.99999999999977" as="targetPoint" />
            <Array as="points">
              <mxPoint x="1080" y="-490" />
              <mxPoint x="1080" y="-104" />
            </Array>
          </mxGeometry>
        </mxCell>
        <mxCell id="7wcA-T8HbLnC7azTt-rd-481" value="" style="image;points=[];aspect=fixed;html=1;align=center;shadow=0;dashed=0;image=img/lib/allied_telesis/storage/Datacenter_Server_Half_Rack_ToR.svg;" vertex="1" parent="1">
          <mxGeometry x="1025.3400000000001" y="-488" width="84.66" height="110" as="geometry" />
        </mxCell>
        <mxCell id="7wcA-T8HbLnC7azTt-rd-483" style="edgeStyle=orthogonalEdgeStyle;rounded=0;orthogonalLoop=1;jettySize=auto;html=1;startArrow=classic;startFill=1;" edge="1" parent="1" source="7wcA-T8HbLnC7azTt-rd-484" target="7wcA-T8HbLnC7azTt-rd-478">
          <mxGeometry relative="1" as="geometry" />
        </mxCell>
        <mxCell id="7wcA-T8HbLnC7azTt-rd-484" value="" style="verticalLabelPosition=bottom;html=1;verticalAlign=top;align=center;strokeColor=none;fillColor=#00BEF2;shape=mxgraph.azure.load_balancer_generic;pointerEvents=1;" vertex="1" parent="1">
          <mxGeometry x="289.82000000000005" y="-611" width="50" height="60" as="geometry" />
        </mxCell>
        <mxCell id="7wcA-T8HbLnC7azTt-rd-485" value="" style="outlineConnect=0;dashed=0;verticalLabelPosition=bottom;verticalAlign=top;align=center;html=1;shape=mxgraph.aws3.internet_gateway;fillColor=#F58534;gradientColor=none;" vertex="1" parent="1">
          <mxGeometry x="13.33" y="-793" width="69" height="72" as="geometry" />
        </mxCell>
        <mxCell id="7wcA-T8HbLnC7azTt-rd-486" value="" style="outlineConnect=0;dashed=0;verticalLabelPosition=bottom;verticalAlign=top;align=center;html=1;shape=mxgraph.aws3.internet_gateway;fillColor=#F58534;gradientColor=none;" vertex="1" parent="1">
          <mxGeometry x="353.33" y="-793" width="69" height="72" as="geometry" />
        </mxCell>
        <mxCell id="7wcA-T8HbLnC7azTt-rd-487" value="" style="image;aspect=fixed;html=1;points=[];align=center;fontSize=12;image=img/lib/azure2/identity/Azure_Active_Directory.svg;" vertex="1" parent="1">
          <mxGeometry x="386.33000000000004" y="-488" width="70" height="64" as="geometry" />
        </mxCell>
        <mxCell id="7wcA-T8HbLnC7azTt-rd-488" value="Services" style="html=1;whiteSpace=wrap;strokeColor=none;fillColor=#0079D6;labelPosition=center;verticalLabelPosition=middle;verticalAlign=top;align=center;fontSize=12;outlineConnect=0;spacingTop=-6;fontColor=#FFFFFF;sketch=0;shape=mxgraph.sitemap.services;" vertex="1" parent="1">
          <mxGeometry x="43.33" y="-283" width="120" height="70" as="geometry" />
        </mxCell>
        <mxCell id="7wcA-T8HbLnC7azTt-rd-489" style="edgeStyle=orthogonalEdgeStyle;rounded=0;orthogonalLoop=1;jettySize=auto;html=1;entryX=0;entryY=0.5;entryDx=0;entryDy=0;entryPerimeter=0;" edge="1" parent="1" source="7wcA-T8HbLnC7azTt-rd-490" target="7wcA-T8HbLnC7azTt-rd-484">
          <mxGeometry relative="1" as="geometry" />
        </mxCell>
        <mxCell id="7wcA-T8HbLnC7azTt-rd-490" value="" style="image;aspect=fixed;html=1;points=[];align=center;fontSize=12;image=img/lib/azure2/azure_stack/User_Subscriptions.svg;" vertex="1" parent="1">
          <mxGeometry x="69.33" y="-614" width="68" height="66" as="geometry" />
        </mxCell>
        <mxCell id="7wcA-T8HbLnC7azTt-rd-491" value="Internet" style="text;html=1;align=center;verticalAlign=middle;resizable=0;points=[];autosize=1;strokeColor=none;fillColor=none;fontSize=22;" vertex="1" parent="1">
          <mxGeometry x="82.33" y="-773" width="100" height="40" as="geometry" />
        </mxCell>
        <mxCell id="7wcA-T8HbLnC7azTt-rd-492" value="Intranet" style="text;html=1;align=center;verticalAlign=middle;resizable=0;points=[];autosize=1;strokeColor=none;fillColor=none;fontSize=22;" vertex="1" parent="1">
          <mxGeometry x="422.33000000000004" y="-773" width="100" height="40" as="geometry" />
        </mxCell>
        <mxCell id="7wcA-T8HbLnC7azTt-rd-493" value="Employees" style="text;html=1;align=center;verticalAlign=middle;resizable=0;points=[];autosize=1;strokeColor=none;fillColor=none;fontSize=22;" vertex="1" parent="1">
          <mxGeometry x="38.33" y="-540" width="130" height="40" as="geometry" />
        </mxCell>
        <mxCell id="7wcA-T8HbLnC7azTt-rd-494" value="Company Services" style="text;html=1;align=center;verticalAlign=middle;resizable=0;points=[];autosize=1;strokeColor=none;fillColor=none;fontSize=20;" vertex="1" parent="1">
          <mxGeometry x="23.33" y="-214" width="190" height="40" as="geometry" />
        </mxCell>
        <mxCell id="7wcA-T8HbLnC7azTt-rd-495" value="&lt;font style=&quot;font-size: 22px;&quot;&gt;Azure API&lt;br style=&quot;font-size: 22px;&quot;&gt;ConnectOne&lt;/font&gt;" style="text;html=1;align=center;verticalAlign=middle;resizable=0;points=[];autosize=1;strokeColor=none;fillColor=none;fontSize=22;" vertex="1" parent="1">
          <mxGeometry x="236.32999999999998" y="-356" width="150" height="70" as="geometry" />
        </mxCell>
        <mxCell id="7wcA-T8HbLnC7azTt-rd-496" value="&lt;font style=&quot;font-size: 14px;&quot;&gt;ALB&lt;br style=&quot;font-size: 14px;&quot;&gt;Solr.jarvis.trendmicro.com​&lt;br style=&quot;font-size: 14px;&quot;&gt;10.140.248.27&lt;/font&gt;" style="text;html=1;align=center;verticalAlign=middle;resizable=0;points=[];autosize=1;strokeColor=none;fillColor=none;fontSize=14;horizontal=1;" vertex="1" parent="1">
          <mxGeometry x="446.66" y="-218.5" width="180" height="60" as="geometry" />
        </mxCell>
        <mxCell id="7wcA-T8HbLnC7azTt-rd-497" value="10.140.248.0/24" style="text;html=1;align=center;verticalAlign=middle;resizable=0;points=[];autosize=1;strokeColor=none;fillColor=none;fontSize=14;" vertex="1" parent="1">
          <mxGeometry x="719.6300000000001" y="-203.5" width="120" height="30" as="geometry" />
        </mxCell>
        <mxCell id="7wcA-T8HbLnC7azTt-rd-498" value="AAD&lt;br&gt;Azure" style="text;html=1;align=center;verticalAlign=middle;resizable=0;points=[];autosize=1;strokeColor=none;fillColor=none;fontSize=22;" vertex="1" parent="1">
          <mxGeometry x="381.33000000000004" y="-430" width="80" height="70" as="geometry" />
        </mxCell>
        <mxCell id="7wcA-T8HbLnC7azTt-rd-499" value="L4/FW&lt;br&gt;" style="text;html=1;align=center;verticalAlign=middle;resizable=0;points=[];autosize=1;strokeColor=none;fillColor=none;fontSize=22;" vertex="1" parent="1">
          <mxGeometry x="271.87000000000006" y="-650" width="90" height="40" as="geometry" />
        </mxCell>
        <mxCell id="7wcA-T8HbLnC7azTt-rd-500" value="Router \ FW" style="text;html=1;align=center;verticalAlign=middle;resizable=0;points=[];autosize=1;strokeColor=none;fillColor=none;fontSize=22;" vertex="1" parent="1">
          <mxGeometry x="242.13" y="-80" width="140" height="40" as="geometry" />
        </mxCell>
        <mxCell id="7wcA-T8HbLnC7azTt-rd-503" value="" style="outlineConnect=0;dashed=0;verticalLabelPosition=bottom;verticalAlign=top;align=center;html=1;shape=mxgraph.aws3.vpc;fillColor=#F58536;gradientColor=none;" vertex="1" parent="1">
          <mxGeometry x="396.33000000000004" y="-346" width="50" height="60" as="geometry" />
        </mxCell>
        <mxCell id="7wcA-T8HbLnC7azTt-rd-504" value="&amp;nbsp;Solr - AWS VPC" style="text;html=1;align=left;verticalAlign=middle;resizable=0;points=[];autosize=1;strokeColor=none;fillColor=none;fontSize=22;" vertex="1" parent="1">
          <mxGeometry x="446.66" y="-340" width="190" height="40" as="geometry" />
        </mxCell>
        <mxCell id="7wcA-T8HbLnC7azTt-rd-505" value="" style="outlineConnect=0;dashed=0;verticalLabelPosition=bottom;verticalAlign=top;align=center;html=1;shape=mxgraph.aws3.vpc;fillColor=#F58536;gradientColor=none;" vertex="1" parent="1">
          <mxGeometry x="636.6600000000001" y="-346" width="50" height="60" as="geometry" />
        </mxCell>
        <mxCell id="7wcA-T8HbLnC7azTt-rd-506" value="&amp;nbsp;Solr - Azure AKS" style="text;html=1;align=center;verticalAlign=middle;resizable=0;points=[];autosize=1;strokeColor=none;fillColor=none;fontSize=22;" vertex="1" parent="1">
          <mxGeometry x="677.3300000000002" y="-336" width="190" height="40" as="geometry" />
        </mxCell>
        <mxCell id="7wcA-T8HbLnC7azTt-rd-507" value="&lt;font style=&quot;font-size: 16px;&quot;&gt;Data&lt;br&gt;TCP 443&lt;br&gt;&lt;/font&gt;" style="text;html=1;align=center;verticalAlign=middle;resizable=0;points=[];autosize=1;strokeColor=none;fillColor=none;fontSize=22;" vertex="1" parent="1">
          <mxGeometry x="985.0000000000001" y="-287" width="90" height="70" as="geometry" />
        </mxCell>
        <mxCell id="7wcA-T8HbLnC7azTt-rd-508" value="&lt;font style=&quot;font-size: 16px;&quot;&gt;Data&lt;br&gt;TCP 443&lt;br&gt;&lt;/font&gt;" style="text;html=1;align=center;verticalAlign=middle;resizable=0;points=[];autosize=1;strokeColor=none;fillColor=none;fontSize=22;" vertex="1" parent="1">
          <mxGeometry x="535.6600000000002" y="-502" width="90" height="70" as="geometry" />
        </mxCell>
        <mxCell id="7wcA-T8HbLnC7azTt-rd-509" value="&lt;span style=&quot;font-size: 14px; font-family: Helvetica, Helvetica_EmbeddedFont, Helvetica_MSFontService, &amp;quot;ＭＳ Ｐゴシック&amp;quot;, sans-serif; background-color: initial;&quot;&gt;sjdc-piweb01.us.trendnet.org - 10.45.171.27​&amp;nbsp;&lt;/span&gt;&lt;br style=&quot;font-size: 14px;&quot;&gt;&lt;div style=&quot;margin: 0px; padding: 0px; user-select: text; -webkit-user-drag: none; -webkit-tap-highlight-color: transparent; touch-action: pan-x pan-y; overflow: visible; cursor: text; clear: both; position: relative; direction: ltr; text-align: start; font-size: 14px;&quot; class=&quot;OutlineElement Ltr SCXP161266945 BCX0&quot;&gt;&lt;p style=&quot;font-size: 14px; margin: 0px; padding: 0px; user-select: text; -webkit-user-drag: none; -webkit-tap-highlight-color: transparent; touch-action: pan-x pan-y; overflow-wrap: break-word; vertical-align: baseline; text-align: center;&quot; data-ccp-props=&quot;{&amp;quot;335551550&amp;quot;:2,&amp;quot;335551620&amp;quot;:2,&amp;quot;335559683&amp;quot;:0,&amp;quot;335559685&amp;quot;:0,&amp;quot;335559731&amp;quot;:0,&amp;quot;335559737&amp;quot;:0,&amp;quot;335562764&amp;quot;:2,&amp;quot;335562765&amp;quot;:1,&amp;quot;335562766&amp;quot;:2,&amp;quot;335562767&amp;quot;:0,&amp;quot;335562768&amp;quot;:2,&amp;quot;335562769&amp;quot;:0}&quot; lang=&quot;EN-US&quot; class=&quot;Paragraph SCXP161266945 BCX0&quot;&gt;&lt;font style=&quot;font-size: 14px;&quot; face=&quot;Helvetica, Helvetica_EmbeddedFont, Helvetica_MSFontService, ＭＳ Ｐゴシック, sans-serif&quot;&gt;sjdc-piweb02.us.trendnet.org - 10.45.171.28​&lt;/font&gt;&lt;br style=&quot;font-size: 14px;&quot;&gt;&lt;/p&gt;&lt;/div&gt;" style="text;html=1;strokeColor=none;fillColor=none;align=center;verticalAlign=middle;whiteSpace=wrap;rounded=0;fontSize=14;" vertex="1" parent="1">
          <mxGeometry x="350.33000000000004" y="-680" width="351" height="50" as="geometry" />
        </mxCell>
        <mxCell id="7wcA-T8HbLnC7azTt-rd-510" value="&lt;span style=&quot;font-family: Helvetica, Helvetica_EmbeddedFont, Helvetica_MSFontService, &amp;quot;ＭＳ Ｐゴシック&amp;quot;, sans-serif; background-color: initial; font-size: 14px;&quot;&gt;sjdc-job.us.trendnet.org​&lt;/span&gt;&lt;br style=&quot;font-size: 14px;&quot;&gt;&lt;div style=&quot;margin: 0px; padding: 0px; user-select: text; -webkit-user-drag: none; -webkit-tap-highlight-color: transparent; touch-action: pan-x pan-y; overflow: visible; cursor: text; clear: both; position: relative; direction: ltr; text-align: start; font-size: 14px;&quot; class=&quot;OutlineElement Ltr SCXP161266945 BCX0&quot;&gt;&lt;p style=&quot;text-align: center; margin: 0px; padding: 0px; user-select: text; -webkit-user-drag: none; -webkit-tap-highlight-color: transparent; touch-action: pan-x pan-y; overflow-wrap: break-word; vertical-align: baseline; font-size: 14px;&quot; data-ccp-props=&quot;{&amp;quot;335551550&amp;quot;:2,&amp;quot;335551620&amp;quot;:2,&amp;quot;335559683&amp;quot;:0,&amp;quot;335559685&amp;quot;:0,&amp;quot;335559731&amp;quot;:0,&amp;quot;335559737&amp;quot;:0,&amp;quot;335562764&amp;quot;:2,&amp;quot;335562765&amp;quot;:1,&amp;quot;335562766&amp;quot;:2,&amp;quot;335562767&amp;quot;:0,&amp;quot;335562768&amp;quot;:2,&amp;quot;335562769&amp;quot;:0}&quot; lang=&quot;EN-US&quot; class=&quot;Paragraph SCXP161266945 BCX0&quot;&gt;&lt;font face=&quot;Helvetica, Helvetica_EmbeddedFont, Helvetica_MSFontService, ＭＳ Ｐゴシック, sans-serif&quot; style=&quot;font-size: 14px;&quot;&gt;10.45.171.48&lt;/font&gt;&lt;br style=&quot;font-size: 14px;&quot;&gt;&lt;/p&gt;&lt;/div&gt;" style="text;html=1;strokeColor=none;fillColor=none;align=center;verticalAlign=middle;whiteSpace=wrap;rounded=0;fontSize=14;" vertex="1" parent="1">
          <mxGeometry x="883.33" y="-544.5" width="351" height="50" as="geometry" />
        </mxCell>
        <mxCell id="7wcA-T8HbLnC7azTt-rd-511" value="&lt;font style=&quot;font-size: 16px;&quot;&gt;Data&lt;br&gt;TCP 443&lt;br&gt;&lt;/font&gt;" style="text;html=1;align=center;verticalAlign=middle;resizable=0;points=[];autosize=1;strokeColor=none;fillColor=none;fontSize=22;" vertex="1" parent="1">
          <mxGeometry x="168.3300000000001" y="-650" width="90" height="70" as="geometry" />
        </mxCell>
        <mxCell id="7wcA-T8HbLnC7azTt-rd-512" value="" style="edgeStyle=orthogonalEdgeStyle;rounded=0;orthogonalLoop=1;jettySize=auto;html=1;entryX=1;entryY=0.5;entryDx=0;entryDy=0;entryPerimeter=0;exitX=-0.001;exitY=0.526;exitDx=0;exitDy=0;exitPerimeter=0;" edge="1" parent="1" source="7wcA-T8HbLnC7azTt-rd-469" target="7wcA-T8HbLnC7azTt-rd-488">
          <mxGeometry relative="1" as="geometry">
            <mxPoint x="172.32999999999998" y="-243" as="sourcePoint" />
            <mxPoint x="276.33000000000004" y="-244" as="targetPoint" />
          </mxGeometry>
        </mxCell>
        <mxCell id="7wcA-T8HbLnC7azTt-rd-513" value="&lt;font style=&quot;font-size: 16px;&quot;&gt;Data&lt;br&gt;TCP 443&lt;br&gt;&lt;/font&gt;" style="text;html=1;align=center;verticalAlign=middle;resizable=0;points=[];autosize=1;strokeColor=none;fillColor=none;fontSize=22;" vertex="1" parent="1">
          <mxGeometry x="168.3300000000001" y="-313" width="90" height="70" as="geometry" />
        </mxCell>
        <mxCell id="7wcA-T8HbLnC7azTt-rd-515" value="&lt;font style=&quot;border-color: rgb(0, 0, 0); color: rgb(240, 240, 240); font-family: Helvetica; font-size: 22px; font-style: normal; font-variant-ligatures: normal; font-variant-caps: normal; font-weight: 400; letter-spacing: normal; orphans: 2; text-align: center; text-indent: 0px; text-transform: none; widows: 2; word-spacing: 0px; -webkit-text-stroke-width: 0px; text-decoration-thickness: initial; text-decoration-style: initial; text-decoration-color: initial;&quot;&gt;Job Server-SJDC&lt;span class=&quot;EOP SCXP161266945 BCX0&quot; style=&quot;border-color: rgb(0, 0, 0); margin: 0px; padding: 0px; user-select: text; -webkit-user-drag: none; -webkit-tap-highlight-color: transparent; touch-action: pan-x pan-y; line-height: 0px; font-family: Helvetica, Helvetica_EmbeddedFont, Helvetica_MSFontService, &amp;quot;ＭＳ Ｐゴシック&amp;quot;, sans-serif; font-size: 22px;&quot;&gt;​&lt;/span&gt;&lt;span data-scheme-color=&quot;@FFFFFF,,&quot; data-usefontface=&quot;true&quot; data-contrast=&quot;none&quot; class=&quot;TextRun SCXP161266945 BCX0&quot; lang=&quot;EN-US&quot; style=&quot;border-color: rgb(0, 0, 0); font-variant-numeric: normal; font-variant-east-asian: normal; font-variant-alternates: normal; margin: 0px; padding: 0px 0px 0.114505px; user-select: text; -webkit-user-drag: none; touch-action: pan-x pan-y; font-family: Helvetica, Helvetica_EmbeddedFont, Helvetica_MSFontService, &amp;quot;ＭＳ Ｐゴシック&amp;quot;, sans-serif; font-kerning: none; line-height: 14px; font-size: 22px; letter-spacing: 0px; -webkit-tap-highlight-color: transparent; vertical-align: 0.114505px;&quot;&gt;&lt;/span&gt;&lt;span class=&quot;EOP SCXP161266945 BCX0&quot; style=&quot;border-color: rgb(0, 0, 0); margin: 0px; padding: 0px; user-select: text; -webkit-user-drag: none; -webkit-tap-highlight-color: transparent; touch-action: pan-x pan-y; line-height: 0px; font-family: Helvetica, Helvetica_EmbeddedFont, Helvetica_MSFontService, &amp;quot;ＭＳ Ｐゴシック&amp;quot;, sans-serif; font-size: 22px;&quot;&gt;​&lt;/span&gt;&lt;span style=&quot;border-color: rgb(0, 0, 0); font-family: Helvetica, Helvetica_EmbeddedFont, Helvetica_MSFontService, &amp;quot;ＭＳ Ｐゴシック&amp;quot;, sans-serif; font-size: 22px;&quot;&gt;​&lt;br style=&quot;font-size: 22px;&quot;&gt;&lt;/span&gt;&lt;/font&gt;" style="text;whiteSpace=wrap;html=1;fontSize=22;" vertex="1" parent="1">
          <mxGeometry x="965.33" y="-573.5" width="187" height="37" as="geometry" />
        </mxCell>
        <mxCell id="7wcA-T8HbLnC7azTt-rd-516" value="&lt;font style=&quot;border-color: rgb(0, 0, 0); color: rgb(240, 240, 240); font-family: Helvetica; font-size: 22px; font-style: normal; font-variant-ligatures: normal; font-variant-caps: normal; font-weight: 400; letter-spacing: normal; orphans: 2; text-align: center; text-indent: 0px; text-transform: none; widows: 2; word-spacing: 0px; -webkit-text-stroke-width: 0px; text-decoration-thickness: initial; text-decoration-style: initial; text-decoration-color: initial;&quot;&gt;Web Server-SJDC&lt;span class=&quot;EOP SCXP161266945 BCX0&quot; style=&quot;border-color: rgb(0, 0, 0); margin: 0px; padding: 0px; user-select: text; -webkit-user-drag: none; -webkit-tap-highlight-color: transparent; touch-action: pan-x pan-y; line-height: 0px; font-family: Helvetica, Helvetica_EmbeddedFont, Helvetica_MSFontService, &amp;quot;ＭＳ Ｐゴシック&amp;quot;, sans-serif; font-size: 22px;&quot;&gt;​&lt;/span&gt;&lt;span data-scheme-color=&quot;@FFFFFF,,&quot; data-usefontface=&quot;true&quot; data-contrast=&quot;none&quot; class=&quot;TextRun SCXP161266945 BCX0&quot; lang=&quot;EN-US&quot; style=&quot;border-color: rgb(0, 0, 0); font-variant-numeric: normal; font-variant-east-asian: normal; font-variant-alternates: normal; margin: 0px; padding: 0px 0px 0.114505px; user-select: text; -webkit-user-drag: none; touch-action: pan-x pan-y; font-family: Helvetica, Helvetica_EmbeddedFont, Helvetica_MSFontService, &amp;quot;ＭＳ Ｐゴシック&amp;quot;, sans-serif; font-kerning: none; line-height: 14px; font-size: 22px; letter-spacing: 0px; -webkit-tap-highlight-color: transparent; vertical-align: 0.114505px;&quot;&gt;&lt;/span&gt;&lt;span class=&quot;EOP SCXP161266945 BCX0&quot; style=&quot;border-color: rgb(0, 0, 0); margin: 0px; padding: 0px; user-select: text; -webkit-user-drag: none; -webkit-tap-highlight-color: transparent; touch-action: pan-x pan-y; line-height: 0px; font-family: Helvetica, Helvetica_EmbeddedFont, Helvetica_MSFontService, &amp;quot;ＭＳ Ｐゴシック&amp;quot;, sans-serif; font-size: 22px;&quot;&gt;​&lt;/span&gt;&lt;span style=&quot;border-color: rgb(0, 0, 0); font-family: Helvetica, Helvetica_EmbeddedFont, Helvetica_MSFontService, &amp;quot;ＭＳ Ｐゴシック&amp;quot;, sans-serif; font-size: 22px;&quot;&gt;​&lt;br style=&quot;font-size: 22px;&quot;&gt;&lt;/span&gt;&lt;/font&gt;" style="text;whiteSpace=wrap;html=1;fontSize=22;" vertex="1" parent="1">
          <mxGeometry x="431.33000000000004" y="-710" width="187" height="37" as="geometry" />
        </mxCell>
        <mxCell id="7wcA-T8HbLnC7azTt-rd-517" value="apim-connectone.azure-api.net/api/solrsearch/WikiSolr" style="text;whiteSpace=wrap;html=1;fontSize=14;" vertex="1" parent="1">
          <mxGeometry x="220.82999999999998" y="-217" width="162.5" height="50" as="geometry" />
        </mxCell>
        <mxCell id="7wcA-T8HbLnC7azTt-rd-518" value="&lt;span style=&quot;color: rgb(240, 240, 240); font-family: Helvetica; font-size: 14px; font-style: normal; font-variant-ligatures: normal; font-variant-caps: normal; font-weight: 400; letter-spacing: normal; orphans: 2; text-align: center; text-indent: 0px; text-transform: none; widows: 2; word-spacing: 0px; -webkit-text-stroke-width: 0px; background-color: rgb(42, 37, 47); text-decoration-thickness: initial; text-decoration-style: initial; text-decoration-color: initial; float: none; display: inline !important;&quot;&gt;eurekasearch.trendmicro.com&lt;/span&gt;" style="text;whiteSpace=wrap;html=1;fontSize=14;" vertex="1" parent="1">
          <mxGeometry x="216.82" y="-550" width="196" height="32" as="geometry" />
        </mxCell>
        <mxCell id="7wcA-T8HbLnC7azTt-rd-519" value="" style="shape=image;verticalLabelPosition=bottom;labelBackgroundColor=default;verticalAlign=top;aspect=fixed;imageAspect=0;image=https://logos-world.net/wp-content/uploads/2023/03/Atlassian-Logo.jpg;clipPath=inset(0% 19.33% 0.3% 19%);" vertex="1" parent="1">
          <mxGeometry x="45.87" y="-158.5" width="119.13" height="108.5" as="geometry" />
        </mxCell>
        <mxCell id="7wcA-T8HbLnC7azTt-rd-520" value="Wiki Cloud" style="text;html=1;align=center;verticalAlign=middle;resizable=0;points=[];autosize=1;strokeColor=none;fillColor=none;fontSize=20;" vertex="1" parent="1">
          <mxGeometry x="48.33" y="-53" width="120" height="40" as="geometry" />
        </mxCell>
        <mxCell id="7wcA-T8HbLnC7azTt-rd-523" style="edgeStyle=orthogonalEdgeStyle;rounded=0;orthogonalLoop=1;jettySize=auto;html=1;entryX=1;entryY=0.5;entryDx=0;entryDy=0;" edge="1" parent="1" source="7wcA-T8HbLnC7azTt-rd-521" target="7wcA-T8HbLnC7azTt-rd-519">
          <mxGeometry relative="1" as="geometry" />
        </mxCell>
        <mxCell id="7wcA-T8HbLnC7azTt-rd-521" value="" style="image;html=1;image=img/lib/clip_art/networking/Router_Icon_128x128.png" vertex="1" parent="1">
          <mxGeometry x="271.49" y="-144.25" width="80" height="80" as="geometry" />
        </mxCell>
        <mxCell id="7wcA-T8HbLnC7azTt-rd-524" value="&lt;font style=&quot;font-size: 16px;&quot;&gt;Data&lt;br&gt;TCP 443&lt;br&gt;&lt;/font&gt;" style="text;html=1;align=center;verticalAlign=middle;resizable=0;points=[];autosize=1;strokeColor=none;fillColor=none;fontSize=22;" vertex="1" parent="1">
          <mxGeometry x="170.60000000000014" y="-167" width="90" height="70" as="geometry" />
        </mxCell>
      </root>
    </mxGraphModel>
  </diagram>
</mxfile>
